name ./resultDataOpenSim/trcMotMarkerGrf/sub09/grf-01-06.mot
datacolumns 19
datarows 10
range 1.44400000 1.48000000
endheader

                time	     ground_force_vx	     ground_force_vy	     ground_force_vz	     ground_force_px	     ground_force_py	     ground_force_pz	   l_ground_force_vx	   l_ground_force_vy	   l_ground_force_vz	   l_ground_force_px	   l_ground_force_py	   l_ground_force_pz	     ground_torque_x	     ground_torque_y	     ground_torque_z	   l_ground_torque_x	   l_ground_torque_y	   l_ground_torque_z	
          1.44400000	        -20.18319230	        444.75015575	         -9.47874785	          0.99186063	          0.00000000	          0.08107404	          0.00000000	          0.00000000	          0.00000000	          0.00000000	          0.00000000	          0.00000000	          0.00000000	         -0.25946806	          0.00000000	          0.00000000	          0.00000000	          0.00000000	
          1.44800000	        -17.50277595	        440.92657922	         -8.10417563	          0.99185118	          0.00000000	          0.08118569	          0.00000000	          0.00000000	          0.00000000	          0.00000000	          0.00000000	          0.00000000	          0.00000000	         -0.07579366	          0.00000000	          0.00000000	          0.00000000	          0.00000000	
          1.45200000	        -16.90025054	        437.59678331	         -7.38872254	          0.99217555	          0.00000000	          0.08125878	          0.00000000	          0.00000000	          0.00000000	          0.00000000	          0.00000000	          0.00000000	          0.00000000	          0.14541822	          0.00000000	          0.00000000	          0.00000000	          0.00000000	
          1.45600000	        -17.99545821	        434.81714141	         -7.50094291	          0.99278823	          0.00000000	          0.08130938	          0.00000000	          0.00000000	          0.00000000	          0.00000000	          0.00000000	          0.00000000	          0.00000000	          0.38481382	          0.00000000	          0.00000000	          0.00000000	          0.00000000	
          1.46000000	        -19.97031733	        432.63586234	         -8.43819499	          0.99355608	          0.00000000	          0.08135623	          0.00000000	          0.00000000	          0.00000000	          0.00000000	          0.00000000	          0.00000000	          0.00000000	          0.61574930	          0.00000000	          0.00000000	          0.00000000	          0.00000000	
          1.46400000	        -21.80935378	        431.11169720	        -10.02518355	          0.99430707	          0.00000000	          0.08140565	          0.00000000	          0.00000000	          0.00000000	          0.00000000	          0.00000000	          0.00000000	          0.00000000	          0.81280934	          0.00000000	          0.00000000	          0.00000000	          0.00000000	
          1.46800000	        -22.58596961	        430.30218924	        -11.94723187	          0.99486676	          0.00000000	          0.08144841	          0.00000000	          0.00000000	          0.00000000	          0.00000000	          0.00000000	          0.00000000	          0.00000000	          0.96035841	          0.00000000	          0.00000000	          0.00000000	          0.00000000	
          1.47200000	        -21.70935266	        430.22945203	        -13.82270816	          0.99511475	          0.00000000	          0.08147523	          0.00000000	          0.00000000	          0.00000000	          0.00000000	          0.00000000	          0.00000000	          0.00000000	          1.05748175	          0.00000000	          0.00000000	          0.00000000	          0.00000000	
          1.47600000	        -19.06227472	        430.86832205	        -15.28889807	          0.99502478	          0.00000000	          0.08149191	          0.00000000	          0.00000000	          0.00000000	          0.00000000	          0.00000000	          0.00000000	          0.00000000	          1.11768873	          0.00000000	          0.00000000	          0.00000000	          0.00000000	
          1.48000000	        -14.99907528	        432.17471094	        -16.07179773	          0.99465766	          0.00000000	          0.08150240	          0.00000000	          0.00000000	          0.00000000	          0.00000000	          0.00000000	          0.00000000	          0.00000000	          1.16436187	          0.00000000	          0.00000000	          0.00000000	          0.00000000	
